<svg width="526" height="468" viewBox="0 0 526 468" fill="none" xmlns="http://www.w3.org/2000/svg">
<rect width="251" height="224" rx="67" fill="#EF426F"/>
<rect x="151" y="124" width="100" height="100" fill="#EF426F"/>
<rect width="100" height="100" fill="#EF426F"/>
<rect x="275" y="243" width="251" height="224" rx="67" fill="#D0DF00"/>
<rect x="426" y="367" width="100" height="100" fill="#D0DF00"/>
<rect x="275" y="243" width="100" height="100" fill="#D0DF00"/>
<rect width="251" height="224" rx="67" transform="matrix(-0.999994 0.00334092 0.00334092 0.999994 250.999 243)" fill="#00C7B1"/>
<rect width="100" height="100" transform="matrix(-0.999994 0.00334092 0.00334092 0.999994 100.414 367.504)" fill="#00C7B1"/>
<rect width="100" height="100" transform="matrix(-0.999994 0.00334092 0.00334092 0.999994 250.999 243)" fill="#00C7B1"/>
<rect width="251" height="224" rx="67" transform="matrix(-1 0 0 1 526 0)" fill="#753BBD"/>
<rect width="100" height="100" transform="matrix(-1 0 0 1 375 124)" fill="#753BBD"/>
<rect width="100" height="100" transform="matrix(-1 0 0 1 526 0)" fill="#753BBD"/>
<path d="M165.902 150.435C203.455 131.391 210.71 89.8415 203.071 74.7781C195.432 59.7146 182.194 52.226 167.172 59.8438C152.15 67.4616 142.729 67.5076 137.001 56.2107C129.363 41.1503 112.37 35.5656 97.3484 43.1834C48.5282 67.9409 39.3661 105.723 52.7323 132.08C75.6505 177.266 120.848 173.282 165.902 150.435ZM167.651 130.611C162.467 133.24 156.125 131.156 153.49 125.96C150.852 120.757 152.919 114.413 158.104 111.784C163.289 109.154 169.63 111.238 172.267 116.438C174.902 121.634 172.836 127.982 167.651 130.611ZM137.614 145.843C132.429 148.473 126.088 146.389 123.452 141.192C120.814 135.99 122.882 129.645 128.066 127.016C133.248 124.389 139.589 126.472 142.226 131.672C144.861 136.868 142.795 143.216 137.614 145.843ZM99.9326 146.018C94.745 148.649 88.4051 146.568 85.7669 141.366C83.1286 136.163 85.1975 129.822 90.3851 127.191C95.5698 124.562 101.907 126.644 104.543 131.844C107.183 137.042 105.117 143.389 99.9326 146.018ZM182.48 94.6871C177.295 97.3163 170.958 95.234 168.323 90.0374C165.685 84.8349 167.752 78.4907 172.934 75.863C178.115 73.2352 184.46 75.3175 187.097 80.517C189.732 85.7136 187.664 92.0578 182.48 94.6871ZM116.446 80.8361C110.224 83.9914 102.619 81.4944 99.4519 75.2485C96.289 69.0114 98.7666 61.3978 104.989 58.2424C111.211 55.087 118.817 57.587 121.98 63.8241C125.148 70.07 122.669 77.6807 116.446 80.8361Z" fill="white"/>
<path d="M420.896 25.081C421.208 25.1461 421.534 25.2633 421.833 25.3935L445.688 35.2893C448.148 36.318 449.411 39.2346 448.396 41.7477L447.25 44.9768C446.495 46.8258 444.659 47.9977 442.667 47.9977C442.016 47.9977 441.391 47.8284 440.792 47.581L438.292 46.5393L436.417 50.9143L417.771 43.3102L419.75 38.831L416.938 37.6852C415.714 37.1773 414.724 36.2008 414.229 34.9768C413.734 33.7659 413.826 32.5159 414.333 31.331L415.375 27.9977C416.286 25.8883 418.721 24.6643 420.896 25.081ZM410.062 47.9977C411.443 47.8935 412.784 48.3883 414.646 49.1435L434.438 57.2685C439.867 59.4299 440.714 61.4221 438.5 66.956L424.229 101.331L390.792 87.9977L405.167 53.1018C406.078 50.7971 406.807 49.1174 408.708 48.3102C409.177 48.1018 409.607 48.0367 410.062 47.9977ZM443.812 71.4352C458.057 79.8727 464.477 97.7242 458.083 113.518L453.396 124.664C447.849 118.532 439.906 114.56 431 114.56C430.883 114.56 430.805 114.664 430.688 114.664L434.854 104.039C436.013 101.162 435.479 97.9846 433.812 95.6018L443.812 71.4352ZM388.292 94.2477L421.729 107.581L419.646 112.685C419.307 113.492 418.669 114.117 417.875 114.456L408.396 118.518C407.979 118.701 407.484 118.831 407.042 118.831C406.625 118.831 406.182 118.675 405.792 118.518L392.146 113.102C391.326 112.776 390.727 112.138 390.375 111.331L386.208 101.748C385.857 100.927 385.87 100.068 386.208 99.2477L388.292 94.2477ZM366 116.227C366.143 116.253 366.286 116.292 366.417 116.331C366.703 116.37 366.977 116.435 367.25 116.539L410.062 134.143C413.982 126.526 421.859 121.227 431 121.227C444.021 121.227 454.646 131.852 454.646 144.873C454.646 157.893 444.021 168.518 431 168.518C417.979 168.518 407.354 157.893 407.354 144.873C407.354 143.349 407.602 141.839 407.875 140.393L364.75 122.789C362.94 122.438 361.742 120.693 362.094 118.883C362.445 117.073 364.19 115.875 366 116.227ZM364.854 147.477C366.404 147.477 367.888 147.75 369.333 148.31L402.25 161.018C403.174 161.383 404.281 161.396 405.479 161.123C407.185 163.805 409.281 166.188 411.729 168.206H355.375C354.594 167.295 353.904 166.318 353.396 165.185C352.029 162.112 351.872 158.74 353.083 155.602C354.945 150.784 359.685 147.477 364.854 147.477ZM451.417 174.873C456.703 174.873 461 179.365 461 184.873V188.206C461 190.055 459.503 191.539 457.667 191.539H344.333C342.484 191.539 341 190.055 341 188.206V184.873C341 179.365 345.297 174.873 350.583 174.873H451.417Z" fill="white"/>
<path d="M199.586 330.73C198.939 325.867 198.847 317.489 203.365 314.676C203.446 314.625 203.506 314.55 203.577 314.486C207.27 313.305 209.826 311.647 207.82 309.416L153.336 293L65.1151 305.265C65.1151 305.265 55.0127 306.709 55.9152 322.405C56.4051 330.947 59.0843 335.143 61.4274 337.207L54.1881 339.389C52.1787 341.62 54.7343 343.278 58.4282 344.458C58.4984 344.523 58.5576 344.597 58.6398 344.649C63.1545 347.464 63.0676 355.841 62.4182 360.705C46.199 365.311 52.0212 366.812 52.0212 366.812L55.579 367.673C53.0764 369.934 50.5911 374.222 51.0566 382.356C51.9596 398.048 60.2575 399.131 60.2575 399.131L117.989 417.896L205.128 396.789C205.128 396.789 210.952 395.286 194.728 390.68C194.076 385.823 193.985 377.448 198.51 374.625C198.593 374.575 198.654 374.499 198.721 374.436C202.415 373.255 204.969 371.599 202.962 369.368L199.175 368.224C201.701 366.701 205.495 362.72 206.089 352.379C206.499 345.266 204.644 341.101 202.496 338.648L209.982 336.837C209.983 336.84 215.807 335.336 199.586 330.73ZM126.699 330.529L141.353 327.518L190.873 317.341L198.251 315.824C195.894 320.139 195.993 326.043 196.383 329.838C196.468 330.697 196.566 331.481 196.662 332.077L188.587 334.085L126.083 349.634L126.699 330.529ZM63.7542 345.801L71.1311 347.319L118.688 357.095L122.843 357.946L135.303 360.507L135.917 379.611L71.6774 363.629L65.3443 362.055C65.4374 361.458 65.5358 360.675 65.6251 359.814C66.0128 356.022 66.1136 350.116 63.7542 345.801ZM60.8883 321.649C60.799 317.475 61.543 314.455 63.0466 312.921C64.0035 311.941 65.1328 311.737 65.9073 311.737C66.3165 311.737 66.6111 311.794 66.6312 311.794L104.643 324.186L123.608 330.369L122.986 349.607L69.7822 334.691L66.9745 333.905C66.8713 333.876 66.7314 333.856 66.6235 333.851C66.4044 333.835 61.1442 333.351 60.8883 321.649ZM118.126 409.561L62.1164 393.858C62.0128 393.828 61.8743 393.808 61.7664 393.803C61.5434 393.788 56.2809 393.304 56.0264 381.605C55.9357 377.425 56.6835 374.409 58.1842 372.873C59.1435 371.893 60.2733 371.689 61.0464 371.689C61.4565 371.689 61.7502 371.744 61.7717 371.744L118.745 390.323L118.126 409.561ZM191.52 389.789C191.609 390.651 191.707 391.433 191.802 392.03L121.223 409.588L121.839 390.484L136.929 387.381L139.157 387.92L147.51 385.206L186.011 377.294L193.392 375.776C191.032 380.09 191.13 385.997 191.52 389.789ZM195.408 363.825C195.28 363.828 195.151 363.845 195.03 363.884L189.707 365.374L139.022 379.586L138.402 360.348L155.031 354.924L195.297 341.793C195.303 341.79 197.415 341.321 198.966 342.898C200.468 344.433 201.213 347.452 201.125 351.627C200.862 363.324 195.6 363.811 195.408 363.825Z" fill="white"/>
<path d="M468.462 293H341.538V370.969H468.462V293ZM455.991 358.493H354.014V305.475H455.991V358.493Z" fill="white"/>
<path d="M466.387 380.329H343.618L325 397.819V407.882H485V397.819L466.387 380.329ZM389.121 396.198L392.173 391.315H417.828L420.884 396.198H389.121Z" fill="white"/>
</svg>
